<?xml version="1.0" standalone="no"?>
<!DOCTYPE svg PUBLIC "-//W3C//DTD SVG 20010904//EN"
 "http://www.w3.org/TR/2001/REC-SVG-20010904/DTD/svg10.dtd">
<svg version="1.0" xmlns="http://www.w3.org/2000/svg"
 width="160.000000pt" height="160.000000pt" viewBox="0 0 160.000000 160.000000"
 preserveAspectRatio="xMidYMid meet">
<metadata>
Created by potrace 1.11, written by Peter Selinger 2001-2013
</metadata>
<g transform="translate(0.000000,160.000000) scale(0.100000,-0.100000)"
fill="#000000" stroke="none">
<path d="M1269 1491 c-90 -43 -124 -78 -173 -176 -38 -77 -95 -239 -103 -294
-10 -67 -5 -208 7 -232 30 -57 88 -89 163 -89 100 0 175 52 218 150 11 25 24
54 29 65 8 18 18 48 27 80 1 6 5 25 8 44 4 19 10 44 15 56 7 17 7 280 0 280
-1 0 -3 14 -4 31 -2 17 -8 39 -13 49 -9 15 -11 13 -21 -12 -18 -48 -37 -175
-34 -236 1 -34 -4 -69 -12 -85 -7 -15 -11 -33 -9 -39 3 -7 0 -13 -6 -13 -6 0
-11 -8 -11 -18 0 -10 -3 -22 -7 -26 -4 -3 -8 -12 -9 -19 -8 -37 -49 -133 -60
-140 -7 -4 -11 -13 -8 -20 6 -17 -53 -50 -79 -43 -11 3 -26 1 -31 -3 -24 -19
-54 7 -61 51 -12 67 -8 149 9 196 9 24 15 46 14 50 -3 15 26 92 35 92 5 0 7 9
4 21 -3 12 0 22 9 26 8 3 12 9 9 13 -3 4 2 13 10 20 8 7 15 17 15 22 0 5 15
32 33 59 24 37 41 52 69 61 21 6 44 19 53 28 13 14 13 19 0 37 -20 29 -47 33
-86 14z"/>
<path d="M772 1449 c-30 -15 -63 -36 -74 -46 -55 -49 -156 -280 -184 -423 -4
-19 -8 -75 -8 -123 l-1 -88 41 -39 c40 -37 94 -60 143 -60 37 0 98 21 121 42
11 10 20 16 20 12 0 -4 12 11 26 32 15 21 30 41 35 42 5 2 7 7 4 12 -3 5 2 16
11 24 8 9 12 16 9 16 -4 0 2 15 12 33 21 34 29 60 39 122 3 21 10 48 14 61 5
12 7 72 6 133 -2 62 0 111 6 111 5 0 4 8 -1 19 -6 10 -8 21 -5 24 3 3 0 22 -6
43 l-13 37 -13 -25 c-7 -14 -16 -37 -19 -51 -3 -15 -8 -39 -11 -54 -3 -15 -9
-32 -13 -38 -4 -5 -7 -41 -6 -80 1 -38 -2 -81 -8 -95 -6 -14 -12 -34 -14 -44
-2 -11 -8 -25 -13 -31 -5 -6 -11 -20 -13 -31 -2 -10 -11 -33 -20 -51 -9 -18
-17 -38 -17 -46 0 -8 -10 -25 -23 -39 -13 -14 -22 -29 -20 -35 6 -18 -62 -43
-107 -39 -39 3 -58 16 -61 41 -6 46 -3 122 4 133 5 6 7 12 4 12 -3 0 0 20 7
44 8 25 11 47 8 50 -3 4 -1 6 4 6 5 0 11 10 11 22 1 13 6 32 12 43 26 57 41
94 41 104 0 6 5 11 10 11 6 0 10 7 10 15 0 8 9 24 20 35 11 11 20 23 19 26 -1
8 48 66 55 65 3 0 11 1 18 3 7 3 25 7 41 10 50 11 30 76 -26 81 -12 1 -46 -10
-75 -26z"/>
<path d="M490 1406 c-20 -6 -54 -27 -75 -48 -53 -49 -163 -136 -197 -156 -36
-21 -46 -51 -22 -69 26 -19 51 -16 92 12 20 14 41 25 46 25 6 0 22 12 38 27
l27 26 -26 -69 c-14 -38 -45 -121 -68 -184 -48 -127 -88 -229 -109 -275 -21
-44 -35 -93 -30 -98 3 -3 0 -23 -6 -45 -15 -56 -15 -136 0 -172 l13 -30 13 25
c7 15 13 29 12 33 -4 14 15 78 29 99 8 12 17 44 19 70 3 26 9 50 14 51 6 2 10
9 10 17 0 7 7 18 15 25 13 11 13 15 3 21 -10 7 -9 9 3 9 15 0 33 32 30 53 -1
4 3 7 8 7 8 0 17 21 26 59 8 31 28 71 37 71 5 0 5 7 0 17 -10 16 2 50 21 64 5
3 8 10 8 15 -2 18 11 44 21 44 5 0 8 6 5 14 -3 7 6 38 20 67 15 30 28 62 29
71 2 9 14 36 26 60 13 24 24 54 26 67 2 14 7 32 12 40 8 15 -17 73 -30 70 -3
-1 -21 -6 -40 -13z"/>
<path d="M937 567 c2 -4 -15 -7 -39 -7 -71 2 -138 -7 -228 -30 -47 -12 -94
-23 -105 -26 -49 -9 -129 -43 -136 -57 -13 -22 27 -69 52 -62 11 4 34 8 51 10
17 3 46 9 65 16 19 6 44 12 56 14 12 2 33 6 47 10 50 12 247 37 325 40 44 1
103 6 130 11 28 4 57 8 65 9 8 1 23 2 33 3 15 2 15 5 5 22 -12 18 -41 34 -93
50 -11 3 -26 0 -34 -7 -10 -10 -17 -11 -27 -2 -7 6 -18 8 -24 4 -5 -3 -10 -2
-10 3 0 5 -31 8 -69 8 -38 0 -67 -4 -64 -9z"/>
<path d="M965 331 c-3 -6 -20 -8 -37 -6 -18 2 -35 0 -38 -5 -7 -11 -82 -16
-98 -6 -7 4 -12 3 -12 -2 0 -5 -6 -9 -12 -10 -7 0 -40 -3 -73 -6 -33 -2 -73
-10 -90 -16 -16 -6 -30 -11 -30 -10 0 3 -59 -10 -90 -20 -16 -5 -46 -12 -65
-15 -19 -3 -77 -20 -128 -38 -92 -31 -118 -50 -106 -80 8 -22 47 -37 68 -25
10 6 32 11 50 13 17 1 38 5 46 7 71 23 92 29 107 33 10 2 50 11 88 20 39 9 86
18 105 21 19 2 62 9 95 14 33 5 79 12 103 15 23 3 59 7 80 10 20 3 82 7 137
10 55 2 118 8 140 13 22 4 54 7 70 6 41 -2 70 13 56 30 -18 22 -158 60 -163
44 -4 -12 -100 -9 -175 7 -12 3 -24 1 -28 -4z"/>
</g>
</svg>
